<svg xmlns="http://www.w3.org/2000/svg" xmlns:xlink="http://www.w3.org/1999/xlink" width="500" zoomAndPan="magnify" viewBox="0 0 375 374.999991" height="500" preserveAspectRatio="xMidYMid meet" version="1.0"><defs><g/><clipPath id="0f428cf29a"><path d="M 29.515625 0 L 345.265625 0 L 345.265625 283.5 L 29.515625 283.5 Z M 29.515625 0 " clip-rule="nonzero"/></clipPath></defs><g clip-path="url(#0f428cf29a)"><path fill="#14b7dc" d="M 179.457031 183.6875 L 186.832031 175.3125 C 190.328125 179.5625 195.203125 182.3125 200.949219 183.0625 L 200.949219 224.441406 L 160.714844 247.441406 L 120.605469 270.691406 L 40.386719 224.441406 L 40.386719 131.6875 L 62.503906 118.8125 L 62.503906 106.3125 L 29.515625 125.4375 L 29.515625 230.691406 L 120.605469 283.316406 L 211.695312 230.691406 L 211.695312 181.5625 C 219.566406 178.3125 224.941406 170.5625 224.941406 161.5625 C 224.941406 149.6875 215.195312 139.9375 203.324219 139.9375 C 196.328125 139.9375 190.078125 143.1875 186.082031 148.3125 L 178.582031 139.6875 C 183.957031 136.0625 187.332031 130.1875 187.953125 123.5625 L 214.195312 108.3125 L 254.304688 85.1875 L 334.523438 131.4375 L 334.523438 224.191406 L 294.289062 247.441406 L 254.179688 270.566406 L 214.070312 247.441406 L 207.820312 243.941406 L 196.953125 250.191406 L 254.179688 283.191406 L 345.265625 230.566406 L 345.265625 125.3125 L 254.179688 72.6875 L 185.582031 112.3125 C 182.082031 105.1875 174.710938 100.1875 166.214844 100.1875 C 154.34375 100.1875 144.597656 109.9375 144.597656 121.8125 C 144.597656 133.3125 153.71875 142.9375 165.339844 143.4375 L 165.339844 179.3125 C 157.589844 179.6875 151.09375 183.9375 147.347656 190.3125 L 120.355469 174.6875 L 80.246094 151.5625 L 80.246094 58.808594 L 160.464844 12.558594 L 240.683594 58.808594 L 240.683594 72.1875 L 251.554688 65.9375 L 251.554688 52.558594 L 160.589844 0.183594 L 69.5 52.808594 L 69.5 158.0625 L 144.597656 201.5625 C 144.722656 213.4375 154.34375 223.066406 166.214844 223.066406 C 178.082031 223.066406 187.828125 213.3125 187.828125 201.4375 C 188.078125 193.9375 184.582031 187.6875 179.457031 183.6875 Z M 185.707031 173.6875 L 177.957031 182.4375 C 174.835938 180.4375 171.335938 179.3125 167.464844 179.1875 L 167.464844 143.4375 C 170.960938 143.3125 174.210938 142.3125 177.210938 140.6875 L 185.332031 149.8125 C 183.082031 153.0625 182.082031 157.1875 182.082031 161.3125 C 181.832031 166.0625 183.332031 170.3125 185.707031 173.6875 Z M 185.707031 173.6875 " fill-opacity="1" fill-rule="evenodd"/></g><g fill="#ffffff" fill-opacity="1"><g transform="translate(19.279173, 365.228033)"><g><path d="M 16.5625 -34.59375 C 21.675781 -34.59375 26.171875 -33.320312 30.046875 -30.78125 L 26.78125 -23.984375 C 24.988281 -25.023438 23.066406 -25.878906 21.015625 -26.546875 C 18.960938 -27.222656 17.234375 -27.5625 15.828125 -27.5625 C 13.316406 -27.5625 12.0625 -26.726562 12.0625 -25.0625 C 12.0625 -23.988281 12.679688 -23.125 13.921875 -22.46875 C 15.160156 -21.820312 16.664062 -21.257812 18.4375 -20.78125 C 20.21875 -20.3125 21.992188 -19.742188 23.765625 -19.078125 C 25.546875 -18.410156 27.050781 -17.328125 28.28125 -15.828125 C 29.519531 -14.328125 30.140625 -12.4375 30.140625 -10.15625 C 30.140625 -6.875 28.851562 -4.3125 26.28125 -2.46875 C 23.707031 -0.625 20.4375 0.296875 16.46875 0.296875 C 13.632812 0.296875 10.832031 -0.191406 8.0625 -1.171875 C 5.289062 -2.148438 2.878906 -3.484375 0.828125 -5.171875 L 4.203125 -11.875 C 5.929688 -10.375 7.96875 -9.144531 10.3125 -8.1875 C 12.65625 -7.226562 14.738281 -6.75 16.5625 -6.75 C 17.96875 -6.75 19.0625 -7 19.84375 -7.5 C 20.625 -8 21.015625 -8.738281 21.015625 -9.71875 C 21.015625 -10.664062 20.566406 -11.457031 19.671875 -12.09375 C 18.773438 -12.726562 17.65625 -13.195312 16.3125 -13.5 C 14.976562 -13.8125 13.53125 -14.226562 11.96875 -14.75 C 10.40625 -15.269531 8.957031 -15.835938 7.625 -16.453125 C 6.289062 -17.078125 5.175781 -18.066406 4.28125 -19.421875 C 3.382812 -20.773438 2.9375 -22.394531 2.9375 -24.28125 C 2.9375 -27.40625 4.179688 -29.90625 6.671875 -31.78125 C 9.160156 -33.65625 12.457031 -34.59375 16.5625 -34.59375 Z M 16.5625 -34.59375 "/></g></g></g><g fill="#ffffff" fill-opacity="1"><g transform="translate(51.717326, 365.228033)"><g><path d="M 41 0 L 33.328125 0 L 33.265625 -22.234375 L 25.0625 -3.421875 L 19.390625 -3.421875 L 11.1875 -22.234375 L 11.1875 0 L 3.421875 0 L 3.421875 -34.25 L 12.953125 -34.25 L 22.234375 -13.875 L 31.515625 -34.25 L 41 -34.25 Z M 41 0 "/></g></g></g><g fill="#06ecfc" fill-opacity="1"><g transform="translate(97.161185, 365.228033)"><g/></g></g><g fill="#06ecfc" fill-opacity="1"><g transform="translate(110.742311, 365.228033)"><g><path d="M 19.640625 -34.34375 C 22.046875 -34.34375 24.394531 -33.878906 26.6875 -32.953125 C 28.988281 -32.023438 30.972656 -30.734375 32.640625 -29.078125 L 29.265625 -24.875 C 28.023438 -26.207031 26.554688 -27.265625 24.859375 -28.046875 C 23.171875 -28.828125 21.460938 -29.21875 19.734375 -29.21875 C 16.316406 -29.21875 13.425781 -28.050781 11.0625 -25.71875 C 8.707031 -23.394531 7.53125 -20.554688 7.53125 -17.203125 C 7.53125 -13.804688 8.707031 -10.941406 11.0625 -8.609375 C 13.425781 -6.285156 16.316406 -5.125 19.734375 -5.125 C 23.285156 -5.125 26.460938 -6.476562 29.265625 -9.1875 L 32.6875 -5.375 C 30.925781 -3.644531 28.875 -2.273438 26.53125 -1.265625 C 24.1875 -0.253906 21.828125 0.25 19.453125 0.25 C 14.429688 0.25 10.207031 -1.414062 6.78125 -4.75 C 3.363281 -8.09375 1.65625 -12.226562 1.65625 -17.15625 C 1.65625 -22 3.390625 -26.070312 6.859375 -29.375 C 10.328125 -32.6875 14.585938 -34.34375 19.640625 -34.34375 Z M 19.640625 -34.34375 "/></g></g></g><g fill="#06ecfc" fill-opacity="1"><g transform="translate(145.769634, 365.228033)"><g><path d="M 6.875 -29.375 C 10.363281 -32.6875 14.664062 -34.34375 19.78125 -34.34375 C 24.894531 -34.34375 29.195312 -32.6875 32.6875 -29.375 C 36.175781 -26.070312 37.921875 -21.976562 37.921875 -17.09375 C 37.921875 -12.207031 36.175781 -8.09375 32.6875 -4.75 C 29.195312 -1.414062 24.894531 0.25 19.78125 0.25 C 14.664062 0.25 10.363281 -1.414062 6.875 -4.75 C 3.394531 -8.09375 1.65625 -12.207031 1.65625 -17.09375 C 1.65625 -21.976562 3.394531 -26.070312 6.875 -29.375 Z M 19.84375 -29.171875 C 16.445312 -29.171875 13.546875 -28.003906 11.140625 -25.671875 C 8.734375 -23.347656 7.53125 -20.488281 7.53125 -17.09375 C 7.53125 -13.707031 8.738281 -10.832031 11.15625 -8.46875 C 13.582031 -6.113281 16.472656 -4.9375 19.828125 -4.9375 C 23.191406 -4.9375 26.0625 -6.113281 28.4375 -8.46875 C 30.8125 -10.832031 32 -13.707031 32 -17.09375 C 32 -20.488281 30.8125 -23.347656 28.4375 -25.671875 C 26.0625 -28.003906 23.195312 -29.171875 19.84375 -29.171875 Z M 19.84375 -29.171875 "/></g></g></g><g fill="#06ecfc" fill-opacity="1"><g transform="translate(186.317275, 365.228033)"><g><path d="M 33.5625 -34.203125 L 33.5625 -14.171875 C 33.5625 -9.703125 32.242188 -6.179688 29.609375 -3.609375 C 26.972656 -1.035156 23.34375 0.25 18.71875 0.25 C 14.09375 0.25 10.453125 -1.035156 7.796875 -3.609375 C 5.140625 -6.179688 3.8125 -9.703125 3.8125 -14.171875 L 3.8125 -34.203125 L 9.578125 -34.203125 L 9.578125 -14.171875 C 9.578125 -11.304688 10.398438 -9.050781 12.046875 -7.40625 C 13.691406 -5.757812 15.929688 -4.9375 18.765625 -4.9375 C 21.566406 -4.9375 23.769531 -5.75 25.375 -7.375 C 26.988281 -9.007812 27.796875 -11.273438 27.796875 -14.171875 L 27.796875 -34.203125 Z M 33.5625 -34.203125 "/></g></g></g><g fill="#06ecfc" fill-opacity="1"><g transform="translate(224.61771, 365.228033)"><g><path d="M 26.1875 0 L 19.9375 -10.359375 C 19.613281 -10.328125 19.09375 -10.3125 18.375 -10.3125 L 10.265625 -10.3125 L 10.265625 0 L 4.5 0 L 4.5 -34.203125 L 18.375 -34.203125 C 22.738281 -34.203125 26.125 -33.179688 28.53125 -31.140625 C 30.945312 -29.109375 32.15625 -26.238281 32.15625 -22.53125 C 32.15625 -19.789062 31.539062 -17.472656 30.3125 -15.578125 C 29.09375 -13.691406 27.34375 -12.3125 25.0625 -11.4375 L 32.734375 0 Z M 10.265625 -15.484375 L 18.375 -15.484375 C 23.90625 -15.484375 26.671875 -17.78125 26.671875 -22.375 C 26.671875 -26.800781 23.90625 -29.015625 18.375 -29.015625 L 10.265625 -29.015625 Z M 10.265625 -15.484375 "/></g></g></g><g fill="#06ecfc" fill-opacity="1"><g transform="translate(260.915197, 365.228033)"><g><path d="M 15.734375 -34.453125 C 20.160156 -34.453125 24.148438 -33.273438 27.703125 -30.921875 L 25.3125 -25.84375 C 21.820312 -27.957031 18.484375 -29.015625 15.296875 -29.015625 C 13.566406 -29.015625 12.203125 -28.707031 11.203125 -28.09375 C 10.210938 -27.476562 9.71875 -26.597656 9.71875 -25.453125 C 9.71875 -24.316406 10.171875 -23.347656 11.078125 -22.546875 C 11.992188 -21.742188 13.132812 -21.15625 14.5 -20.78125 C 15.875 -20.414062 17.359375 -19.945312 18.953125 -19.375 C 20.546875 -18.800781 22.023438 -18.195312 23.390625 -17.5625 C 24.765625 -16.925781 25.898438 -15.929688 26.796875 -14.578125 C 27.691406 -13.234375 28.140625 -11.597656 28.140625 -9.671875 C 28.140625 -6.671875 26.941406 -4.273438 24.546875 -2.484375 C 22.148438 -0.691406 19.050781 0.203125 15.25 0.203125 C 12.632812 0.203125 10.101562 -0.285156 7.65625 -1.265625 C 5.21875 -2.242188 3.085938 -3.566406 1.265625 -5.234375 L 3.765625 -10.21875 C 5.492188 -8.613281 7.390625 -7.378906 9.453125 -6.515625 C 11.523438 -5.660156 13.488281 -5.234375 15.34375 -5.234375 C 17.363281 -5.234375 18.9375 -5.597656 20.0625 -6.328125 C 21.1875 -7.054688 21.75 -8.070312 21.75 -9.375 C 21.75 -10.550781 21.289062 -11.535156 20.375 -12.328125 C 19.457031 -13.128906 18.316406 -13.71875 16.953125 -14.09375 C 15.585938 -14.46875 14.101562 -14.921875 12.5 -15.453125 C 10.90625 -15.992188 9.425781 -16.566406 8.0625 -17.171875 C 6.695312 -17.773438 5.554688 -18.742188 4.640625 -20.078125 C 3.734375 -21.410156 3.28125 -23.023438 3.28125 -24.921875 C 3.28125 -27.816406 4.414062 -30.128906 6.6875 -31.859375 C 8.96875 -33.585938 11.984375 -34.453125 15.734375 -34.453125 Z M 15.734375 -34.453125 "/></g></g></g><g fill="#06ecfc" fill-opacity="1"><g transform="translate(292.278585, 365.228033)"><g><path d="M 28.921875 -29.015625 L 10.265625 -29.015625 L 10.265625 -19.78125 L 26.96875 -19.78125 L 26.96875 -14.609375 L 10.265625 -14.609375 L 10.265625 -5.171875 L 29.515625 -5.171875 L 29.515625 0 L 4.5 0 L 4.5 -34.203125 L 28.921875 -34.203125 Z M 28.921875 -29.015625 "/></g></g></g><g fill="#06ecfc" fill-opacity="1"><g transform="translate(325.302963, 365.228033)"><g><path d="M 15.734375 -34.453125 C 20.160156 -34.453125 24.148438 -33.273438 27.703125 -30.921875 L 25.3125 -25.84375 C 21.820312 -27.957031 18.484375 -29.015625 15.296875 -29.015625 C 13.566406 -29.015625 12.203125 -28.707031 11.203125 -28.09375 C 10.210938 -27.476562 9.71875 -26.597656 9.71875 -25.453125 C 9.71875 -24.316406 10.171875 -23.347656 11.078125 -22.546875 C 11.992188 -21.742188 13.132812 -21.15625 14.5 -20.78125 C 15.875 -20.414062 17.359375 -19.945312 18.953125 -19.375 C 20.546875 -18.800781 22.023438 -18.195312 23.390625 -17.5625 C 24.765625 -16.925781 25.898438 -15.929688 26.796875 -14.578125 C 27.691406 -13.234375 28.140625 -11.597656 28.140625 -9.671875 C 28.140625 -6.671875 26.941406 -4.273438 24.546875 -2.484375 C 22.148438 -0.691406 19.050781 0.203125 15.25 0.203125 C 12.632812 0.203125 10.101562 -0.285156 7.65625 -1.265625 C 5.21875 -2.242188 3.085938 -3.566406 1.265625 -5.234375 L 3.765625 -10.21875 C 5.492188 -8.613281 7.390625 -7.378906 9.453125 -6.515625 C 11.523438 -5.660156 13.488281 -5.234375 15.34375 -5.234375 C 17.363281 -5.234375 18.9375 -5.597656 20.0625 -6.328125 C 21.1875 -7.054688 21.75 -8.070312 21.75 -9.375 C 21.75 -10.550781 21.289062 -11.535156 20.375 -12.328125 C 19.457031 -13.128906 18.316406 -13.71875 16.953125 -14.09375 C 15.585938 -14.46875 14.101562 -14.921875 12.5 -15.453125 C 10.90625 -15.992188 9.425781 -16.566406 8.0625 -17.171875 C 6.695312 -17.773438 5.554688 -18.742188 4.640625 -20.078125 C 3.734375 -21.410156 3.28125 -23.023438 3.28125 -24.921875 C 3.28125 -27.816406 4.414062 -30.128906 6.6875 -31.859375 C 8.96875 -33.585938 11.984375 -34.453125 15.734375 -34.453125 Z M 15.734375 -34.453125 "/></g></g></g></svg>